Coordinates
version=1
nRows=14
nColumns=40
inDegrees=yes

Units are S.I. units (second, meters, Newtons, ...)
If the header above contains a line with 'inDegrees', this indicates whether rotational values are in degrees (yes) or radians (no).

endheader
time	pelvis_tilt	pelvis_list	pelvis_rotation	pelvis_tx	pelvis_ty	pelvis_tz	hip_flexion_r	hip_adduction_r	hip_rotation_r	knee_angle_r	knee_angle_r_beta	ankle_angle_r	subtalar_angle_r	mtp_angle_r	hip_flexion_l	hip_adduction_l	hip_rotation_l	knee_angle_l	knee_angle_l_beta	ankle_angle_l	subtalar_angle_l	mtp_angle_l	lumbar_extension	lumbar_bending	lumbar_rotation	arm_flex_r	arm_add_r	arm_rot_r	elbow_flex_r	pro_sup_r	wrist_flex_r	wrist_dev_r	arm_flex_l	arm_add_l	arm_rot_l	elbow_flex_l	pro_sup_l	wrist_flex_l	wrist_dev_l
      3.86500000	      2.78856232	      1.89396247	     86.02976025	      0.25739114	      0.94457605	      0.06146990	     -7.93206937	      3.99805623	     -9.07638833	      5.02601259	      0.08772047	      1.56122025	     -0.04117128	      0.00000000	     21.93646833	    -17.65352338	    -20.90026731	     56.84933665	      0.99220810	      1.22208030	     -1.52573767	      0.00000000	      0.00000000	      0.00000000	      0.00000000	     37.38339823	    -14.83961411	     37.38339823	     77.86332811	     44.43945961	      0.00000000	      0.00000000	     37.38339823	    -14.83961411	     37.38339823	     77.86332811	     44.43945961	      0.00000000	      0.00000000
      3.87000000	      2.96923708	      1.73984443	     85.95230472	      0.25701067	      0.94387395	      0.05547927	     -8.17117598	      4.14632404	     -9.03494068	      5.07833081	      0.08863359	      1.78939465	      0.01934951	      0.00000000	     22.53744105	    -17.66799371	    -21.00331116	     55.56401699	      0.96977504	      1.49089458	     -1.21280150	      0.00000000	      0.00000000	      0.00000000	      0.00000000	     37.38603588	    -14.83970556	     37.38603588	     77.86012809	     44.44119170	      0.00000000	      0.00000000	     37.38603588	    -14.83970556	     37.38603588	     77.86012809	     44.44119170	      0.00000000	      0.00000000
      3.87500000	      2.07604430	      2.33003103	     85.60925337	      0.25725879	      0.94466586	      0.04901327	     -9.25627000	      3.01954706	     -8.88386821	      4.98978423	      0.08708816	      2.21886622	      0.42480927	      0.00000000	     21.68056664	    -16.43698031	    -21.95220511	     53.38002894	      0.93165726	      1.75106252	     -0.75702327	      0.00000000	      0.00000000	      0.00000000	      0.00000000	     37.40818694	    -14.84047322	     37.40818694	     77.83331124	     44.45560170	      0.00000000	      0.00000000	     37.40818694	    -14.84047322	     37.40818694	     77.83331124	     44.45560170	      0.00000000	      0.00000000
      3.88000000	      2.21619419	      2.15131866	     85.52336931	      0.25697694	      0.94380011	      0.04296565	     -9.48009748	      3.12393531	     -8.81043534	      5.02494765	      0.08770188	      2.43425051	      0.53307647	      0.00000000	     22.21464798	    -16.39272449	    -22.06442397	     51.92812355	      0.90631673	      2.06704433	     -0.33470527	      0.00000000	      0.00000000	      0.00000000	      0.00000000	     37.41229047	    -14.84061522	     37.41229047	     77.82836722	     44.45822890	      0.00000000	      0.00000000	     37.41229047	    -14.84061522	     37.41229047	     77.82836722	     44.45822890	      0.00000000	      0.00000000
      3.88500000	      1.54442525	      2.67074899	     85.20837574	      0.25718155	      0.94423617	      0.03656366	    -10.48969434	      2.24207413	     -8.71470744	      4.93551178	      0.08614093	      2.85968322	      0.88277076	      0.00000000	     21.47208221	    -15.41451865	    -22.94825281	     49.73742660	      0.86808186	      2.19906607	      0.01573383	      0.00000000	      0.00000000	      0.00000000	      0.00000000	     37.43649985	    -14.84145225	     37.43649985	     77.79929543	     44.47352882	      0.00000000	      0.00000000	     37.43649985	    -14.84145225	     37.43649985	     77.79929543	     44.47352882	      0.00000000	      0.00000000
      3.89000000	      1.36120854	      2.80830835	     85.00122725	      0.25717295	      0.94383701	      0.03037022	    -11.06160676	      1.93864761	     -8.65476294	      4.93148471	      0.08607065	      3.17684558	      1.12150238	      0.00000000	     21.38193103	    -15.00487934	    -23.45011015	     47.86902660	      0.83547212	      2.40688914	      0.41066082	      0.00000000	      0.00000000	      0.00000000	      0.00000000	     37.45858182	    -14.84221427	     37.45858182	     77.77295548	     44.48715537	      0.00000000	      0.00000000	     37.45858182	    -14.84221427	     37.45858182	     77.77295548	     44.48715537	      0.00000000	      0.00000000
      3.89500000	      1.68490680	      2.60111100	     84.95596062	      0.25686028	      0.94268164	      0.02436796	    -11.28832707	      2.25613583	     -8.61793039	      4.92610756	      0.08597680	      3.38278274	      1.21580162	      0.00000000	     21.91664414	    -15.16385385	    -23.51135384	     46.34587160	      0.80888805	      2.64947019	      0.79362505	      0.00000000	      0.00000000	      0.00000000	      0.00000000	     37.46096749	    -14.84229650	     37.46096749	     77.77012092	     44.48860795	      0.00000000	      0.00000000	     37.46096749	    -14.84229650	     37.46096749	     77.77012092	     44.48860795	      0.00000000	      0.00000000
      3.90000000	      1.15744574	      3.00478725	     84.62866469	      0.25713680	      0.94267865	      0.01801337	    -12.17999296	      1.53028985	     -8.45682747	      4.82056694	      0.08413476	      3.71587473	      1.48435043	      0.00000000	     21.26485621	    -14.34627892	    -24.37157411	     44.04375225	      0.76870849	      2.75491819	      1.23751355	      0.00000000	      0.00000000	      0.00000000	      0.00000000	     37.48042607	    -14.84296668	     37.48042607	     77.74706748	     44.50032640	      0.00000000	      0.00000000	     37.48042607	    -14.84296668	     37.48042607	     77.74706748	     44.50032640	      0.00000000	      0.00000000
      3.90500000	      1.54479847	      2.75976048	     84.60095994	      0.25681385	      0.94133563	      0.01201770	    -12.38037131	      1.92084693	     -8.42661554	      4.80626352	      0.08388512	      3.93154956	      1.61223431	      0.00000000	     21.80502911	    -14.57461020	    -24.43261737	     42.45445315	      0.74096999	      2.95841562	      1.67953730	      0.00000000	      0.00000000	      0.00000000	      0.00000000	     37.48275070	    -14.84304666	     37.48275070	     77.74432325	     44.50170962	      0.00000000	      0.00000000	     37.48275070	    -14.84304666	     37.48275070	     77.74432325	     44.50170962	      0.00000000	      0.00000000
      3.91000000	      1.13010746	      3.07370707	     84.32761415	      0.25701184	      0.94102173	      0.00567199	    -13.17188023	      1.32208021	     -8.36034037	      4.71874486	      0.08235763	      4.26416188	      1.94250615	      0.00000000	     21.26096353	    -13.86471420	    -25.22156795	     40.12719606	      0.70035169	      3.00909545	      2.15751210	      0.00000000	      0.00000000	      0.00000000	      0.00000000	     37.50554724	    -14.84383020	     37.50554724	     77.71750649	     44.51509498	      0.00000000	      0.00000000	     37.50554724	    -14.84383020	     37.50554724	     77.71750649	     44.51509498	      0.00000000	      0.00000000
      3.91500000	      1.55091270	      2.79805190	     84.30637196	      0.25670206	      0.93952704	     -0.00031428	    -13.34582436	      1.74803891	     -8.33466305	      4.70374170	      0.08209578	      4.46421821	      2.09250923	      0.00000000	     21.78863996	    -14.12742252	    -25.31009804	     38.46513920	      0.67134333	      3.19504481	      2.68255219	      0.00000000	      0.00000000	      0.00000000	      0.00000000	     37.50841308	    -14.84392859	     37.50841308	     77.71414857	     44.51675509	      0.00000000	      0.00000000	     37.50841308	    -14.84392859	     37.50841308	     77.71414857	     44.51675509	      0.00000000	      0.00000000
      3.92000000	      1.29409284	      3.01294428	     84.07673466	      0.25679487	      0.93890676	     -0.00658997	    -14.02434187	      1.32955304	     -8.29905656	      4.64359578	      0.08104604	      4.78000049	      2.41019041	      0.00000000	     21.38486766	    -13.58725356	    -26.02221741	     36.16955814	      0.63127788	      3.18467052	      3.21593462	      0.00000000	      0.00000000	      0.00000000	      0.00000000	     37.52984141	    -14.84466355	     37.52984141	     77.68912691	     44.52901028	      0.00000000	      0.00000000	     37.52984141	    -14.84466355	     37.52984141	     77.68912691	     44.52901028	      0.00000000	      0.00000000
      3.92500000	      1.70562374	      2.70627934	     84.06971483	      0.25643459	      0.93727998	     -0.01265579	    -14.16806935	      1.74294535	     -8.29527786	      4.63010033	      0.08081050	      4.94518447	      2.57895189	      0.00000000	     21.89749154	    -13.83131695	    -26.15950974	     34.45015860	      0.60126870	      3.34800523	      3.84631105	      0.00000000	      0.00000000	      0.00000000	      0.00000000	     37.53400539	    -14.84480620	     37.53400539	     77.68428360	     44.53135969	      0.00000000	      0.00000000	     37.53400539	    -14.84480620	     37.53400539	     77.68428360	     44.53135969	      0.00000000	      0.00000000
      3.93000000	      2.06673249	      2.44717834	     84.05244044	      0.25614913	      0.93568380	     -0.01870418	    -14.36580706	      2.09718954	     -8.29492441	      4.60510850	      0.08037431	      5.15091010	      2.73659878	      0.00000000	     22.31822614	    -14.02278592	    -26.38512160	     32.66411267	      0.57009631	      3.44583770	      4.51291097	      0.00000000	      0.00000000	      0.00000000	      0.00000000	     37.53797629	    -14.84494219	     37.53797629	     77.67967063	     44.53359029	      0.00000000	      0.00000000	     37.53797629	    -14.84494219	     37.53797629	     77.67967063	     44.53359029	      0.00000000	      0.00000000
